<svg id="Capa_1" enable-background="new 0 0 512 512" height="512" viewBox="0 0 512 512" width="512" xmlns="http://www.w3.org/2000/svg" xmlns:xlink="http://www.w3.org/1999/xlink"><linearGradient id="SVGID_1_" gradientUnits="userSpaceOnUse" x1="256" x2="256" y1="512" y2="0"><stop offset="0" stop-color="#5558ff"/><stop offset="1" stop-color="#00c0ff"/></linearGradient><g><g><path d="m406 422h-195v-31h165c8.284 0 15-6.716 15-15s-6.716-15-15-15h-165v-15c0-8.284-6.716-15-15-15h-45v-45c0-41.355 33.645-75 75-75h15v45c0 8.284 6.716 15 15 15h15v45c0 8.284 6.716 15 15 15h60c8.284 0 15-6.716 15-15v-45h15c8.284 0 15-6.716 15-15v-180c0-8.284-6.716-15-15-15h-15v-46c0-8.284-6.716-15-15-15h-60c-8.284 0-15 6.716-15 15v46h-15c-8.284 0-15 6.716-15 15v45h-15c-90.981 0-165 74.019-165 165v211c0 8.284 6.716 15 15 15h360c8.284 0 15-6.716 15-15v-30c0-24.813-20.187-45-45-45zm-75-121h-30v-30h30zm-30-271h30v31h-30zm-30 61h90v150h-90zm-180 195c0-74.439 60.561-135 135-135h15v30h-15c-57.897 0-105 47.103-105 105v45h-30zm330 196h-330v-121h90v76c0 8.284 6.716 15 15 15h210c8.271 0 15 6.729 15 15z" fill="url(#SVGID_1_)"/></g></g></svg>