<?xml version="1.0" encoding="utf-8"?>
<!-- Generator: Adobe Illustrator 19.0.0, SVG Export Plug-In . SVG Version: 6.00 Build 0)  -->
<svg xmlns="http://www.w3.org/2000/svg" xmlns:xlink="http://www.w3.org/1999/xlink" version="1.1" id="Layer_1" x="0px" y="0px" viewBox="0 2 98 98" style="enable-background:new 0 2 98 98;" xml:space="preserve" width="512" height="512">
<style type="text/css">
	.st0{fill:url(#SVGID_1_);}
</style>
<linearGradient id="SVGID_1_" gradientUnits="userSpaceOnUse" x1="49" y1="11.5498" x2="49" y2="90.4502">
	<stop offset="0" style="stop-color:#00EFD1"/>
	<stop offset="1" style="stop-color:#00ACEA"/>
</linearGradient>
<path class="st0" d="M81.4,26.9c-2-6.4-6.6-11.3-12.2-13.1c-7.3-2.4-13.8-0.9-18.3,1.2c-3.6-2.2-7.8-3.4-12.2-3.4  c-4.7,0-9.3,1.4-13.1,4c-2,1.4-3.5,2.8-4.8,4.4c0,0-0.1,0.1-0.1,0.1c0,0-0.1,0.1-0.1,0.1c0,0,0,0,0,0c0,0,0,0,0,0  c-0.1,0.1-0.2,0.3-0.3,0.4c-3.2,4.2-4.9,9.3-4.9,14.5c0,5.6,2,11.1,5.6,15.3c0.1,0.1,0.2,0.3,0.3,0.4c0.1,0.1,0.2,0.3,0.3,0.4  c0,0,0.1,0.1,0.1,0.1c1.4,1.8,2.7,8.7,3.3,11.6c0.2,0.8,0.3,1.5,0.4,2c0.3,1.4,0.6,3,0.8,4.6c0.6,5.5,1.7,9.9,3.1,13.2  c2,4.8,4.8,7.3,8.3,7.6c0.1,0,0.2,0,0.2,0h0.4c4.4,0,6.8-5,8.6-10c0,0,0-0.1,0-0.1l2.5-7.8l2.4,7.8c0,0,0,0.1,0,0.1  c1.7,4.6,4.2,10,8.6,10h0.4c0.1,0,0.2,0,0.3,0c2.4-0.2,5.8-1.7,8.3-7.6c1.3-3.2,2.3-7.4,3.1-13.2c0.2-1.6,0.5-3.1,0.8-4.5  c0.1-0.5,0.2-1.2,0.4-2c0.6-2.9,1.9-9.8,3.3-11.6C82.3,44.2,84,35,81.4,26.9z M72.1,47.9c-2,2.7-3.2,8.2-4.4,14.1  c-0.1,0.7-0.3,1.4-0.4,1.9c-0.3,1.5-0.6,3.2-0.8,5c-0.7,5.2-1.6,8.9-2.7,11.6c-1,2.3-2.2,3.8-3.2,4h0c-0.3-0.2-1.5-1.4-3.2-6  l-4.4-14.1c0-0.1,0-0.1-0.1-0.2c-0.6-1.5-2-2.5-3.7-2.5c0,0,0,0,0,0c-1.6,0-3.1,1-3.7,2.5c0,0,0,0.1-0.1,0.1l-4.5,14.1  c-1.7,4.7-2.8,5.7-3.1,6H38c-1.4-0.2-2.6-2.6-3.2-4c-1.2-2.8-2.1-6.8-2.7-11.6c-0.2-1.8-0.5-3.5-0.8-5.1c-0.1-0.5-0.2-1.2-0.4-1.9  c-1.1-5.8-2.3-11.3-4.3-14c-0.1-0.2-0.2-0.3-0.4-0.5c-0.1-0.1-0.2-0.3-0.3-0.4c-0.1-0.1-0.1-0.2-0.2-0.3c-2.8-3.2-4.3-7.3-4.3-11.5  c0-3.9,1.3-7.7,3.7-10.9c0.1-0.1,0.2-0.3,0.3-0.4c0.1-0.2,0.3-0.3,0.4-0.5c0.1-0.1,0.2-0.3,0.3-0.4c0.2-0.2,0.4-0.4,0.5-0.5  c0.1-0.1,0.2-0.2,0.3-0.3c0.2-0.2,0.4-0.4,0.7-0.6c0.1-0.1,0.2-0.2,0.3-0.3c0.3-0.2,0.6-0.5,0.9-0.7c0,0,0,0,0.1,0  c2.8-1.9,6.2-3,9.7-3c3.7,0,7.3,1.2,10.1,3.3c0.9,0.7,2.2,0.8,3.2,0.3c3.5-1.9,9-3.6,15.3-1.6c3.9,1.2,6.9,4.5,8.3,9.1  C77.7,35,76.3,42.1,72.1,47.9z"/>

</svg>
