<svg id="Capa_1" enable-background="new 0 0 512 512" height="512" viewBox="0 0 512 512" width="512" xmlns="http://www.w3.org/2000/svg"><g><path d="m268.422 30c-17.681 0-34.307 6.885-46.816 19.395-6.841 6.84-15.938 10.605-25.606 10.605h-60v15 15h60c9.668 0 18.765 3.765 25.605 10.605 12.51 12.51 29.136 19.395 46.816 19.395h137.579v-45-45z" fill="#edf5ff"/><path d="m196 90c9.668 0 18.765 3.765 25.605 10.605 12.51 12.51 29.136 19.395 46.816 19.395h137.579v-45h-270v15z" fill="#d5e8fe"/><path d="m31 286h30v211h-30z" fill="#47568c"/><path d="m452 286h30v211h-30z" fill="#3a4673"/><path d="m0 271h106v30h-106z" fill="#5e79bc"/><path d="m166 271h60v30h-60z" fill="#5e79bc"/><path d="m286 271h60v30h-60z" fill="#47568c"/><path d="m136 210h-45v197c0 24.814 20.186 45 45 45s45-20.186 45-45v-197z" fill="#edf5ff"/><path d="m181 407v-197h-45v242c24.814 0 45-20.186 45-45z" fill="#d5e8fe"/><path d="m406 271h106v30h-106z" fill="#47568c"/><path d="m136 331h-15v76c0 8.284 6.716 15 15 15s15-6.716 15-15v-76z" fill="#b3e4ff"/><path d="m151 407v-76h-15v91c8.284 0 15-6.716 15-15z" fill="#5dacff"/><path d="m148.349 77.871-12.349-17.871-12.349 17.871c-9.814 14.224-32.651 37.954-32.651 57.129 0 24.814 20.186 45 45 45s45-20.186 45-45c0-19.175-22.837-42.905-32.651-57.129z" fill="#b3e4ff"/><path d="m181 135c0-19.175-22.837-42.905-32.651-57.129l-12.349-17.871v120c24.814 0 45-20.186 45-45z" fill="#5dacff"/><path d="m256 210h-45v197c0 24.814 20.186 45 45 45s45-20.186 45-45v-197z" fill="#edf5ff"/><path d="m301 407v-197h-45v242c24.814 0 45-20.186 45-45z" fill="#d5e8fe"/><path d="m256 331h-15v76c0 8.284 6.716 15 15 15s15-6.716 15-15v-76z" fill="#a1e6ca"/><path d="m271 407v-76h-15v91c8.284 0 15-6.716 15-15z" fill="#65d6a9"/><path d="m376 210h-45v197c0 24.814 20.186 45 45 45s45-20.186 45-45v-197z" fill="#edf5ff"/><path d="m421 407v-197h-45v242c24.814 0 45-20.186 45-45z" fill="#d5e8fe"/><path d="m376 331h-15v76c0 8.284 6.716 15 15 15s15-6.716 15-15v-76z" fill="#ff6e83"/><path d="m391 407v-76h-15v91c8.284 0 15-6.716 15-15z" fill="#ff3b7f"/><path d="m0 482h512v30h-512z" fill="#5e79bc"/><path d="m256 482h256v30h-256z" fill="#47568c"/><path d="m467 30h-61v45 45h61c24.814 0 45-20.186 45-45s-20.186-45-45-45z" fill="#5e79bc"/><path d="m467 120c24.814 0 45-20.186 45-45h-106v45z" fill="#47568c"/><path d="m391 0v75 75h30v-75-75z" fill="#47568c"/><path d="m391 75h30v75h-30z" fill="#3a4673"/></g></svg>