<svg height="512" viewBox="0 0 128 128" width="512" xmlns="http://www.w3.org/2000/svg"><g><path d="m1.75 44.384h124.5a0 0 0 0 1 0 0v68.242a5 5 0 0 1 -5 5h-114.5a5 5 0 0 1 -5-5v-68.242a0 0 0 0 1 0 0z" fill="#e1e4fb"/><path d="m7.75 25.257h112.5a6 6 0 0 1 6 6v13.127a0 0 0 0 1 0 0h-124.5a0 0 0 0 1 0 0v-13.127a6 6 0 0 1 6-6z" fill="#0d70b2"/><g fill="#1689fc"><path d="m19.125 10.374h4.034a4 4 0 0 1 4 4v10.883a0 0 0 0 1 0 0h-12.034a0 0 0 0 1 0 0v-10.883a4 4 0 0 1 4-4z"/><path d="m47.7 10.374h4.034a4 4 0 0 1 4 4v10.883a0 0 0 0 1 0 0h-12.034a0 0 0 0 1 0 0v-10.883a4 4 0 0 1 4-4z"/><path d="m76.269 10.374h4.031a4 4 0 0 1 4 4v10.883a0 0 0 0 1 0 0h-12.031a0 0 0 0 1 0 0v-10.883a4 4 0 0 1 4-4z"/><path d="m104.841 10.374h4.034a4 4 0 0 1 4 4v10.883a0 0 0 0 1 0 0h-12.034a0 0 0 0 1 0 0v-10.883a4 4 0 0 1 4-4z"/></g><g fill="#c5c9f7"><rect height="11.928" rx="2" width="14.736" x="11.75" y="54.385"/><rect height="11.928" rx="2" width="14.736" x="41.671" y="54.385"/><rect height="11.928" rx="2" width="14.736" x="71.592" y="54.385"/><rect height="11.928" rx="2" width="14.736" x="101.514" y="54.385"/><rect height="11.928" rx="2" width="14.736" x="11.75" y="75.041"/><rect height="11.928" rx="2" width="14.736" x="41.671" y="75.041"/><rect height="11.928" rx="2" width="14.736" x="71.592" y="75.041"/><rect height="11.928" rx="2" width="14.736" x="101.514" y="75.041"/><rect height="11.928" rx="2" width="14.736" x="11.75" y="95.698"/><rect height="11.928" rx="2" width="14.736" x="41.671" y="95.698"/></g><path d="m77.094 109.376a1.749 1.749 0 0 1 -1.371-.663l-5.5-6.94a1.749 1.749 0 1 1 2.741-2.173l4.1 5.177 7.3-9.544a1.75 1.75 0 0 1 2.781 2.125l-8.66 11.331a1.753 1.753 0 0 1 -1.375.687z" fill="#00ddc1"/><path d="m107.016 109.376a1.751 1.751 0 0 1 -1.372-.663l-5.5-6.94a1.749 1.749 0 1 1 2.742-2.173l4.1 5.177 7.294-9.544a1.75 1.75 0 0 1 2.781 2.125l-8.659 11.331a1.753 1.753 0 0 1 -1.375.687z" fill="#00ddc1"/></g></svg>